# xmcd
#
# Track frame offsets: 
#        150
#        7812
#        16502
#        28588
#        38981
#        54730
#        65140
#        80661
#        94127
#        104581
#        113195
#
# Disc length: 1685 seconds
#
# Revision: 0
# Processed by: cddbd v1.5.2PL0 Copyright (c) Steve Scherf et al.
# Submitted via: ExactAudioCopyFreeDBPlugin 1.0
#
DISCID=8806930b
DTITLE=Garth Brooks and Trisha Yearwood - Christmas Together
DYEAR=2016
DGENRE=Country
TTITLE0=I'm Beginning To See The Light
TTITLE1=Ugly Christmas Sweater
TTITLE2=Santa Baby
TTITLE3=Feliz Navidad
TTITLE4=What Are You Doing New Years Eve?
TTITLE5=Marshmallow World
TTITLE6=Merry Christmas Means I Love You
TTITLE7=Hard Candy Christmas
TTITLE8=Baby, It's Cold Outside
TTITLE9=The Man With The Bag
TTITLE10=What I'm Thankful For (The Thanksgiving Song) (with James Tay
TTITLE10=lor)
EXTD=
EXTT0=
EXTT1=
EXTT2=
EXTT3=
EXTT4=
EXTT5=
EXTT6=
EXTT7=
EXTT8=
EXTT9=
EXTT10=
PLAYORDER=
